<?xml version="1.0" encoding="UTF-8"?>
<svg width="69px" height="50px" viewBox="0 0 69 50" version="1.1" xmlns="http://www.w3.org/2000/svg" xmlns:xlink="http://www.w3.org/1999/xlink">
    <!-- Generator: Sketch 55.2 (78181) - https://sketchapp.com -->
    <title>logo-tiho</title>
    <desc>Created with Sketch.</desc>
    <g id="Page-1" stroke="none" stroke-width="1" fill="none" fill-rule="evenodd">
        <g id="Angular-Base-for-Elements" transform="translate(-81.000000, -20.000000)" fill="#FFFFFF" fill-rule="nonzero">
            <g id="Header">
                <g id="logo-tiho" transform="translate(81.000000, 20.000000)">
                    <path d="M2.36063309,8.68558273 C3.0443741,7.88443165 3.97122302,7.26561151 4.77651799,7.26561151 L5.96166906,7.26561151 L5.96166906,11.9426763 L13.1361151,11.9426763 L13.1361151,14.0588201 C13.1361151,15.1265612 12.1774964,16.5078561 10.0710216,16.5078561 L5.96166906,16.5078561 L5.96166906,24.6091511 C5.96166906,27.2930072 7.14958273,28.3262158 9.22705036,28.3262158 C10.8680288,28.3262158 12.1374388,28.0941583 12.9413525,27.6051799 L13.1347338,27.6051799 L13.1347338,29.4450647 C13.1347338,31.5501583 11.6056403,32.8941583 8.6137554,32.8941583 C3.39384173,32.8941583 0.863309353,30.0611223 0.863309353,25.2252086 L0.863309353,12.7907914 C0.863309353,10.7602878 1.24592806,9.99228777 2.36063309,8.68558273 L2.36063309,8.68558273 Z M19.4016691,10.4923165 C21.049554,10.4923165 22.4294676,9.10964029 22.4294676,7.45761151 C22.4294676,5.80972662 21.049554,4.46434532 19.4016691,4.46434532 C17.748259,4.46434532 16.4125468,5.80972662 16.4125468,7.45761151 C16.4125468,9.10964029 17.748259,10.4923165 19.4016691,10.4923165 L19.4016691,10.4923165 Z M23.0441439,32.8541007 C25.236259,32.8541007 26.1161439,31.9755971 26.1161439,29.7461871 L26.1161439,28.6425324 L25.1561439,28.6425324 C22.8935827,28.6425324 22.009554,27.9808921 22.009554,25.92 L22.009554,16.2481727 C22.009554,13.6347626 20.6337842,12.409554 18.3284029,12.409554 L16.8752799,12.409554 L16.8752799,26.4103597 C16.8738993,30.5929209 19.0508201,32.8541007 23.0441439,32.8541007 L23.0441439,32.8541007 Z M63.6721727,22.6946763 C63.6721727,18.5480288 62.1278849,16.090705 58.752,16.090705 C55.8084604,16.090705 54.3138993,18.5466475 54.3138993,21.9639712 C54.3138993,26.0677986 55.8084604,28.5154538 59.2188777,28.5154538 C62.208,28.5168345 63.6721727,26.0691799 63.6721727,22.6946763 L63.6721727,22.6946763 Z M48.9724317,22.6946763 C48.9724317,16.474705 52.547223,11.4909928 59.2188777,11.4909928 C65.4374676,11.4909928 69.0012086,16.474705 69.0012086,21.9653525 C69.0012086,28.1784173 65.4374676,33.1206906 58.752,33.1206906 C52.547223,33.1206906 48.9724317,28.177036 48.9724317,22.6946763 L48.9724317,22.6946763 Z M49.9766331,9.28092086 L50.0843741,9.28092086 C51.7543597,6.91890647 55.0211223,4.92569784 59.5075683,4.92569784 C63.6321151,4.92569784 66.4513381,6.89956835 68.4321151,9.30440288 L68.5343309,9.30440288 L68.5343309,7.12471942 C68.5343309,6.45617266 68.2014388,5.35942446 67.7414676,4.7447482 C66.155741,2.63689209 62.9041727,0.863309353 59.0862734,0.863309353 C55.2310791,0.863309353 51.7529784,3.11067626 50.6631367,4.88011511 C50.2749928,5.52517986 49.9766331,6.45617266 49.9766331,7.04736691 L49.9766331,9.28092086 Z M61.0808633,36.8418993 L60.9275396,36.8418993 C58.4135827,40.7620144 53.4754532,44.0909353 46.7098705,44.0909353 C40.488518,44.0909353 36.241036,40.8006906 33.2505324,36.793554 L33.0958273,36.793554 L33.0958273,39.3931511 C33.0958273,40.5009496 33.5986187,42.3214964 34.2878849,43.354705 C36.6775252,46.8645755 41.5852662,49.8108777 47.3342158,49.8108777 C53.1646619,49.8108777 58.4122014,46.0717122 60.0448921,43.1336978 C60.6429928,42.0631942 61.079482,40.5009496 61.079482,39.5243741 L61.079482,36.8418993 L61.0808633,36.8418993 Z M44.0591655,22.6394245 L41.3283453,22.6394245 L41.4333237,23.1132086 C41.4333237,23.124259 41.7468777,24.4793094 41.7468777,26.0387914 L41.7468777,27.7004892 C41.7468777,28.5168345 41.5742158,29.2641151 39.4939856,29.2641151 C36.4827626,29.2641151 32.9038273,28.0762014 32.9038273,22.3963165 C32.9038273,18.7745612 35.6912806,16.1528633 39.5229928,16.1528633 C41.9540719,16.1528633 44.2635971,16.7937842 45.5537266,17.8173237 L45.6573237,17.9043453 L46.3507338,17.9043453 L46.3507338,16.0989928 C46.3507338,13.9524604 44.3671942,11.641554 40.043741,11.641554 C32.7132086,11.641554 27.5941295,16.3034245 27.5941295,22.969554 C27.5941295,30.0652662 33.3251223,33.7768058 38.9801439,33.7768058 C44.1779568,33.7768058 46.7002026,31.9686906 46.7002026,28.2350504 L46.7002026,24.9213237 C46.7015827,23.7486043 45.4183597,22.6394245 44.0591655,22.6394245 L44.0591655,22.6394245 Z" id="Shape"></path>
                </g>
            </g>
        </g>
    </g>
</svg>